<svg xmlns="http://www.w3.org/2000/svg" version="1.1" xmlns:xlink="http://www.w3.org/1999/xlink" xmlns:svgjs="http://svgjs.com/svgjs" width="1440" height="560" preserveAspectRatio="none" viewBox="0 0 1440 560"><g mask="url(&quot;#SvgjsMask1019&quot;)" fill="none"><path d="M142.6 498.21 a51.13 51.13 0 1 0 102.26 0 a51.13 51.13 0 1 0 -102.26 0z" stroke="rgba(192, 208, 213, 1)"></path><path d="M75.67 73.55L106.08 73.55L106.08 128.77L75.67 128.77z" stroke="rgba(205, 202, 202, 1)"></path><path d="M606.65 84.54a19.73 19.73 0 1 0 14.5 36.7z" fill="rgba(205, 202, 202, 1)"></path><path d="M545.12 542 a47.92 47.92 0 1 0 95.84 0 a47.92 47.92 0 1 0 -95.84 0z" fill="rgba(205, 202, 202, 1)"></path><path d="M1106.54 471.75 a32.68 32.68 0 1 0 65.36 0 a32.68 32.68 0 1 0 -65.36 0z" stroke="rgba(192, 208, 213, 1)"></path><path d="M673.52 115.18L701.18 115.18L701.18 133.18L673.52 133.18z" fill="rgba(192, 208, 213, 1)"></path><path d="M821.94 292.15L875.35 292.15L875.35 294.34L821.94 294.34z" fill="rgba(205, 202, 202, 1)"></path><path d="M1000.98 271.78a47.22 47.22 0 1 0 56.2-75.89z" stroke="rgba(192, 208, 213, 1)"></path><path d="M848.13 39.88a39.12 39.12 0 1 0-34.07 70.43z" stroke="rgba(205, 202, 202, 1)"></path><path d="M661.36 85.53L675.54 85.53L675.54 136.38L661.36 136.38z" fill="rgba(192, 208, 213, 1)"></path><path d="M1124.34 485.72 a16.52 16.52 0 1 0 33.04 0 a16.52 16.52 0 1 0 -33.04 0z" stroke="rgba(192, 208, 213, 1)"></path><path d="M260.03 93.48L276.38 93.48L276.38 135.92L260.03 135.92z" stroke="rgba(192, 208, 213, 1)"></path><path d="M547.9 389.84a2.1 2.1 0 1 0 1.24-4.02z" stroke="rgba(192, 208, 213, 1)"></path><path d="M274.62 561.24a42.46 42.46 0 1 0-70.36-47.56z" fill="rgba(192, 208, 213, 1)"></path><path d="M791.64 544.83 a28.99 28.99 0 1 0 57.98 0 a28.99 28.99 0 1 0 -57.98 0z" stroke="rgba(205, 202, 202, 1)"></path><path d="M499.37 157.28L536.48 157.28L536.48 201.55L499.37 201.55z" stroke="rgba(192, 208, 213, 1)"></path><path d="M267.13 434.81 a54.67 54.67 0 1 0 109.34 0 a54.67 54.67 0 1 0 -109.34 0z" stroke="rgba(205, 202, 202, 1)"></path><path d="M257.13 287.78a20.57 20.57 0 1 0-38.92-13.34z" stroke="rgba(205, 202, 202, 1)"></path><path d="M1434.03 293.86L1448.61 293.86L1448.61 308.44L1434.03 308.44z" stroke="rgba(205, 202, 202, 1)"></path><path d="M104.11 266.08L149.18 266.08L149.18 320.27L104.11 320.27z" stroke="rgba(205, 202, 202, 1)"></path><path d="M1366.22 539.65 a50.22 50.22 0 1 0 100.44 0 a50.22 50.22 0 1 0 -100.44 0z" fill="rgba(205, 202, 202, 1)"></path><path d="M980.3 402.48 a19.29 19.29 0 1 0 38.58 0 a19.29 19.29 0 1 0 -38.58 0z" stroke="rgba(205, 202, 202, 1)"></path><path d="M1110.14 361.22L1127.84 361.22L1127.84 378.92L1110.14 378.92z" stroke="rgba(205, 202, 202, 1)"></path><path d="M584.84 382.22L601.91 382.22L601.91 406.36L584.84 406.36z" stroke="rgba(192, 208, 213, 1)"></path><path d="M877.35 145.69 a41.47 41.47 0 1 0 82.94 0 a41.47 41.47 0 1 0 -82.94 0z" fill="rgba(205, 202, 202, 1)"></path><path d="M99.79 370.11L136.51 370.11L136.51 399.65L99.79 399.65z" fill="rgba(205, 202, 202, 1)"></path><path d="M1029.71 477.37 a35.17 35.17 0 1 0 70.34 0 a35.17 35.17 0 1 0 -70.34 0z" stroke="rgba(205, 202, 202, 1)"></path><path d="M736.73 261.08 a50.6 50.6 0 1 0 101.2 0 a50.6 50.6 0 1 0 -101.2 0z" stroke="rgba(205, 202, 202, 1)"></path><path d="M691.99 430.92L701.72 430.92L701.72 440.65L691.99 440.65z" stroke="rgba(205, 202, 202, 1)"></path><path d="M652.8 558.8 a0.49 0.49 0 1 0 0.98 0 a0.49 0.49 0 1 0 -0.98 0z" stroke="rgba(192, 208, 213, 1)"></path><path d="M1252.83 506.15L1286.57 506.15L1286.57 539.89L1252.83 539.89z" fill="rgba(205, 202, 202, 1)"></path><path d="M131.38 29.61L165.73 29.61L165.73 63.96L131.38 63.96z" stroke="rgba(205, 202, 202, 1)"></path><path d="M459.57 85.97 a21.41 21.41 0 1 0 42.82 0 a21.41 21.41 0 1 0 -42.82 0z" fill="rgba(192, 208, 213, 1)"></path></g><defs><mask id="SvgjsMask1019"><rect width="1440" height="560" fill="#ffffff"></rect></mask></defs></svg>